<svg xmlns="http://www.w3.org/2000/svg" viewBox="0 0 130 50"><g fill="black"><path d="M10,10L40,10Q40,10 40,10L40,40Q40,40 40,40L30,40Q30,40 30,40L30,20Q30,20 30,20L20,20Q20,20 20,20L20,40Q20,40 20,40L10,40Q10,40 10,40L10,10Q10,10 10,10M50,10L80,10Q80,10 80,10L80,40Q80,40 80,40L50,40Q50,40 50,40L50,10Q50,10 50,10M60,20L60,30Q60,30 60,30L70,30Q70,30 70,30L70,20Q70,20 70,20L60,20Q60,20 60,20M90,10L120,10Q120,10 120,10L120,20Q120,20 120,20L100,20Q100,20 100,20L100,40Q100,40 100,40L90,40Q90,40 90,40L90,10Q90,10 90,10"></path></g></svg>